<svg width="122" height="42" viewBox="0 0 122 42" xmlns="http://www.w3.org/2000/svg"><title>Group 2</title><g fill="none" fill-rule="evenodd"><path d="M7.901 0h22.185c6.66 0 12.06 5.4 12.06 12.06v.06c0 5.678-3.775 7.555-3.775 8.88 0 1.325 3.774 3.202 3.774 8.88v.06c0 6.66-5.399 12.06-12.059 12.06H7.901A7.901 7.901 0 010 34.099V7.901A7.901 7.901 0 017.901 0zm2.629 8.625c-1.036 0-1.875.84-1.875 1.875v21c0 1.036.84 1.875 1.875 1.875h19.844c1.035 0 1.875-.84 1.875-1.875v-21c0-1.036-.84-1.875-1.875-1.875H10.53zm3.765 6H26.59a1.125 1.125 0 110 2.25H14.295a1.125 1.125 0 010-2.25zm0 5.25H26.59a1.125 1.125 0 110 2.25H14.295a1.125 1.125 0 010-2.25zm3.387 5.25h5.84a1.125 1.125 0 110 2.25h-5.84a1.125 1.125 0 110-2.25z" fill="#20C98B"/><path d="M55.269 11.425h6.41c2.072 0 3.666.447 4.78 1.342 1.114.895 1.671 2.167 1.671 3.815 0 .921-.22 1.763-.66 2.525a4.508 4.508 0 01-1.801 1.754c1.07.302 1.917.895 2.539 1.782.622.886.933 1.931.933 3.136 0 1.896-.6 3.345-1.801 4.346-1.2 1.002-2.932 1.502-5.195 1.502h-6.876a.923.923 0 01-.924-.923V12.348c0-.51.414-.923.924-.923zm2.834 17.039h3.757c1.053 0 1.865-.253 2.435-.758.57-.505.855-1.218.855-2.14 0-1.842-1.166-2.764-3.498-2.764h-3.55v5.662zm0-8.772h3.005c1.071 0 1.875-.213 2.41-.638.536-.425.803-1.081.803-1.967 0-.815-.263-1.436-.79-1.861-.527-.425-1.317-.638-2.37-.638h-3.058v5.104zm19.692 12.36c-1.157 0-2.198-.292-3.122-.877-.924-.584-1.654-1.422-2.19-2.512-.535-1.09-.803-2.343-.803-3.761 0-1.311.264-2.512.79-3.602a6.632 6.632 0 012.242-2.632c.967-.664 2.055-.996 3.265-.996.898 0 1.714.19 2.448.571a4.428 4.428 0 011.75 1.608l.038-1.306a.462.462 0 01.461-.448h2.537c.255 0 .461.207.461.461v12.608a.462.462 0 01-.461.461h-2.537a.462.462 0 01-.461-.447l-.039-1.28a4.337 4.337 0 01-1.788 1.608c-.742.363-1.606.545-2.59.545zm.985-3.296c1.019 0 1.857-.363 2.513-1.09.657-.726.985-1.665.985-2.817 0-1.134-.324-2.065-.972-2.791-.648-.727-1.49-1.09-2.526-1.09-1.037 0-1.879.363-2.526 1.09-.648.726-.972 1.657-.972 2.79 0 1.153.328 2.092.984 2.819.657.726 1.495 1.09 2.514 1.09zm14.795 3.297c-1.002 0-1.952-.12-2.85-.36-.528-.14-1.128-.401-1.8-.783a.462.462 0 01-.228-.468l.299-2.034a.461.461 0 01.674-.34c.589.315 1.083.536 1.483.662a7.523 7.523 0 002.267.372c1.468 0 2.202-.381 2.202-1.143 0-.408-.155-.718-.466-.93-.311-.213-.959-.461-1.944-.745-1.554-.443-2.664-1.005-3.33-1.688-.664-.682-.997-1.6-.997-2.751 0-1.294.475-2.313 1.425-3.057.95-.744 2.255-1.116 3.913-1.116a10.4 10.4 0 012.436.292c.468.113 1.03.32 1.684.623a.461.461 0 01.263.484l-.278 1.966a.462.462 0 01-.649.355 8.552 8.552 0 00-1.292-.49 7.811 7.811 0 00-2.009-.28c-1.26 0-1.891.346-1.891 1.037 0 .39.151.696.453.917.303.222.903.465 1.801.731 1.659.496 2.829 1.081 3.511 1.754.683.674 1.024 1.604 1.024 2.792 0 1.311-.506 2.339-1.516 3.083-1.01.744-2.406 1.117-4.185 1.117zm9.168-13.956h2.679c.255 0 .461.207.461.461v12.608a.462.462 0 01-.461.461h-2.679a.462.462 0 01-.462-.461V18.558c0-.254.207-.461.462-.461zm1.326-2.765c-.622 0-1.135-.208-1.541-.624a2.107 2.107 0 01-.61-1.529c0-.602.204-1.107.61-1.515.406-.408.92-.611 1.541-.611.622 0 1.136.203 1.542.611.406.408.609.913.609 1.515 0 .62-.203 1.134-.609 1.542-.406.408-.92.611-1.542.611zm6.11 2.765h2.557c.252 0 .457.202.461.454l.02 1.22a3.897 3.897 0 011.593-1.554c.682-.364 1.48-.545 2.396-.545 1.555 0 2.743.491 3.563 1.475.82.983 1.231 2.406 1.231 4.266v7.753a.462.462 0 01-.462.461h-2.678a.462.462 0 01-.462-.461v-7.061c0-2.11-.786-3.164-2.358-3.164-.863 0-1.533.297-2.008.89-.475.594-.712 1.432-.712 2.513v6.822a.462.462 0 01-.462.461h-2.678a.462.462 0 01-.462-.461V18.558c0-.254.207-.461.462-.461z" fill="#242739"/></g></svg>