<svg width="1443" height="902" viewBox="0 0 1443 902" xmlns="http://www.w3.org/2000/svg" xmlns:xlink="http://www.w3.org/1999/xlink"><title>Group 90</title><defs><path d="M32.182 428H0V0h708v428h-32.182c0 177.283-144.083 321-321.818 321-177.735 0-321.818-143.717-321.818-321z" id="a"/><path d="M332.545 398.067v37.958h139.019c35.788 0 64.8 29.012 64.8 64.8V652.7H0V500.825c0-35.788 29.012-64.8 64.8-64.8h139.018v-37.958C154.566 386.087 118 341.689 118 288.75v-21.695c-15.22-2.553-26.818-15.79-26.818-31.737v-37.286c0-15.946 11.598-29.184 26.818-31.737V112.5C118 50.368 168.368 0 230.5 0h75.364c62.132 0 112.5 50.368 112.5 112.5v53.795c15.22 2.553 26.818 15.79 26.818 31.737v37.286c0 15.946-11.598 29.184-26.818 31.737v21.695c0 52.939-36.566 97.337-85.819 109.317z" id="c"/><path d="M417.66 34.935c40.96 4.575 73.884 15.913 83.095 42.573h55.581c35.788 0 64.8 29.012 64.8 64.8V294H85.674V142.308c0-35.788 29.012-64.8 64.8-64.8h55.58c9.212-26.66 42.136-37.998 83.096-42.573v78.738c0 19.882 16.117 36 36 36h56.51c19.883 0 36-16.118 36-36V34.935z" id="e"/><path d="M94.492 40.165C97.34 65.365 119 84.96 145.3 84.96c26.38 0 48.094-19.716 50.832-45.029.22-2.037-2.085-5.416-4.975-5.416H99.79c-2.906 0-5.582 3.129-5.298 5.65z" id="g"/><path id="i" d="M0 0h708v749H0z"/><path d="M483.691 106.787c-7.41-7.543-16.013-13.946-24.38-20.367-1.847-1.415-3.723-2.797-5.528-4.266-.41-.334-4.614-3.333-5.117-4.437-1.211-2.656-.51-.588-.343-3.757.211-4.007 8.413-15.326 2.293-17.921-2.692-1.142-7.495 1.896-10.078 2.9a160.14 160.14 0 01-15.387 5.082c2.502-4.967 7.272-14.91-1.694-12.248-6.985 2.073-13.494 7.403-20.513 9.91 2.322-3.792 11.61-15.545 3.218-16.202-2.612-.204-10.211 4.676-13.023 5.717-8.422 3.12-17.024 5.135-25.866 6.723-30.066 5.398-65.225 3.859-93.042 17.497-21.446 10.513-42.622 26.826-55.01 47.599-11.94 20.022-16.407 41.935-18.906 64.878-1.834 16.839-1.983 34.244-1.125 51.143.28 5.537.905 31.059 8.978 23.33 4.023-3.851 3.993-19.403 5.006-24.666 2.016-10.473 3.957-20.993 7.318-31.131 5.924-17.866 12.912-26.197 27.668-38.501 9.47-7.896 16.12-18.567 25.183-26.532 4.07-3.578.964-3.205 7.51-2.736 4.396.315 8.813.435 13.219.55 10.192.264 20.4.197 30.594.233 20.532.073 40.967.362 61.478-.709 9.115-.475 18.256-.733 27.347-1.573 5.078-.47 14.09-3.712 18.27-1.234 3.825 2.267 7.798 9.67 10.546 12.702 6.49 7.164 14.228 12.636 21.818 18.511 15.825 12.25 23.815 16.936 28.621 36.08 4.789 19.073 3.446 36.768 9.373 55.537 1.043 3.3 3.8 8.989 7.201 3.89.631-.947.468-6.152.468-9.147 0-12.09 3.073-21.162 3.034-33.331-.15-37-1.351-85.248-29.13-113.524z" id="k"/></defs><g fill="none" fill-rule="evenodd"><g transform="translate(0 2)"><circle fill="#8C43FF" opacity=".253" cx="95" cy="631" r="26"/><path d="M1168.687 356.917v.117c27.841 1.835 49.855 24.99 49.855 53.3 0 28.302-22.013 51.463-49.855 53.298v.117h69.438c29.502 0 53.42 23.91 53.42 53.417 0 29.5-23.913 53.416-53.42 53.416H1152.653c-29.491 0-53.407 23.915-53.407 53.416 0 29.507 23.911 53.416 53.407 53.416h90.814c29.502 0 53.419 23.909 53.419 53.416 0 29.501-23.913 53.416-53.42 53.416h-142.439c29.5 0 53.416 23.909 53.416 53.416 0 29.501-23.917 53.416-53.416 53.416H285.54c-29.5 0-53.416-23.908-53.416-53.416 0-29.5 23.916-53.416 53.416-53.416h76.566c29.5 0 53.414-23.915 53.414-53.416 0-29.507-23.914-53.416-53.414-53.416H205.42c-29.502 0-53.419-23.909-53.419-53.416 0-29.501 23.912-53.416 53.42-53.416h45.408c-29.506 0-53.424-23.91-53.424-53.416 0-29.501 23.915-53.417 53.424-53.417H437.77c29.505 0 53.421-23.915 53.421-53.416 0-29.507-23.917-53.416-53.421-53.416H308.69c-29.503 0-53.42-23.909-53.42-53.416 0-29.5 23.913-53.416 53.42-53.416H239.7c-29.506 0-53.425-23.909-53.425-53.416 0-29.501 23.915-53.416 53.425-53.416h936.1c29.506 0 53.425 23.908 53.425 53.416 0 29.5-23.915 53.416-53.424 53.416h-48.949c-29.508 0-53.424 23.915-53.424 53.416 0 29.507 23.919 53.416 53.424 53.416h41.835z" fill="#E2D7F4" opacity=".835"/><g transform="translate(371)"><mask id="b" fill="#fff"><use xlink:href="#a"/></mask><g mask="url(#b)"><g transform="translate(85.818 96.3)"><mask id="d" fill="#fff"><use xlink:href="#c"/></mask><use fill="#D0C6AC" xlink:href="#c"/><g mask="url(#d)" fill="#FFDBB4"><path d="M-85.818 0h709.142v654.053H-85.818z"/></g><path d="M418.364 288.75v21.4c0 62.132-50.368 112.5-112.5 112.5H230.5c-62.132 0-112.5-50.368-112.5-112.5v-21.4c0 62.132 50.368 112.5 112.5 112.5h75.364c62.132 0 112.5-50.368 112.5-112.5z" fill-opacity=".1" fill="#000" mask="url(#d)"/></g><g transform="translate(0 454.75)"><mask id="f" fill="#fff"><use xlink:href="#e"/></mask><use fill="#B7C1DB" xlink:href="#e"/><g mask="url(#f)" fill="#293347"><path d="M0 0h708.458v294H0z"/></g><path d="M273.086 165.012V294h-18.741V155.42c5.9 3.5 12.173 6.71 18.74 9.592zm179.38-9.592v107.828a9.37 9.37 0 11-18.742 0v-98.236c6.568-2.882 12.841-6.091 18.742-9.592z" fill="#F4F4F4" mask="url(#f)"/><path d="M353.39 181.745c-89.584-.005-178.026-42.713-178.026-95.395 0-29.574 27.869-44.732 68.165-52.341-24.324 8.954-40.053 24.005-40.053 49.051 0 54.499 74.475 98.68 149.913 98.685zM463.281 34.01c40.295 7.609 68.164 22.767 68.164 52.34 0 52.683-88.442 95.391-178.025 95.396 75.438-.006 149.913-44.186 149.913-98.685 0-25.046-15.729-40.097-40.052-49.051z" fill-opacity=".16" fill="#000" mask="url(#f)"/></g><g transform="translate(209.182 358.45)"><mask id="h" fill="#fff"><use xlink:href="#g"/></mask><use fill-opacity=".7" fill="#000" xlink:href="#g"/><rect fill="#FFF" mask="url(#h)" x="104.938" y="5.31" width="83.412" height="42.48" rx="4.5"/><g mask="url(#h)" fill="#FF4F6D"><g transform="translate(102.247 63.72)"><ellipse cx="29.598" cy="29.205" rx="29.598" ry="29.205"/><ellipse cx="56.505" cy="29.205" rx="29.598" ry="29.205"/></g></g></g><path d="M322.11 347.295c0 11.568 14.505 20.946 32.4 20.946 17.893 0 32.4-9.378 32.4-20.946" fill="#000" fill-opacity=".16"/><g fill="#000" fill-opacity=".6"><path d="M247.019 300.348c4.936-10.086 16.05-17.118 28.97-17.118 12.876 0 23.958 6.982 28.92 17.01 1.474 2.98-.624 5.418-2.74 3.611-6.552-5.594-15.857-9.088-26.18-9.088-9.998 0-19.043 3.279-25.556 8.57-2.38 1.934-4.858-.035-3.414-2.985zM402.068 300.348c4.936-10.086 16.051-17.118 28.971-17.118 12.875 0 23.957 6.982 28.92 17.01 1.473 2.98-.624 5.418-2.74 3.611-6.553-5.594-15.858-9.088-26.18-9.088-9.999 0-19.043 3.279-25.556 8.57-2.381 1.934-4.859-.035-3.415-2.985z"/></g><g fill="#000" fill-opacity=".6"><path d="M274.759 235.443c-15.52.675-40.593 11.68-39.919 27.015.023.502.775.723 1.142.338 7.35-7.736 59.618-15.473 78.04-11.29 1.686.383 2.963-1.244 1.894-2.422-9.165-10.094-27.253-14.259-41.157-13.641M434.957 235.443c15.52.675 40.593 11.68 39.918 27.015-.022.502-.775.723-1.142.338-7.35-7.736-59.617-15.473-78.04-11.29-1.685.383-2.963-1.244-1.893-2.422 9.165-10.094 27.253-14.259 41.157-13.641"/></g><g><mask id="j" fill="#fff"><use xlink:href="#i"/></mask><g mask="url(#j)"><g transform="translate(-2.682)"><mask id="l" fill="#fff"><use xlink:href="#k"/></mask><use fill="#1F3140" xlink:href="#k"/><g mask="url(#l)"><path d="M2.685 0h712.298v750.208H2.685z" fill="#4A312C"/></g></g></g></g></g></g><rect stroke="#8C43FF" stroke-width="8" fill="#FFF" x="349" y="392" width="751" height="504" rx="28"/><path d="M741.644 603.534c4.087-4.906 6.83-11.724 6.08-18.534-5.865.23-12.996 3.9-17.192 8.787-3.767 4.355-7.068 11.29-6.193 17.948 6.548.505 13.238-3.302 17.305-8.2M772 670.087c-.145.397-2.458 8.325-8.088 16.487-4.85 7.075-9.905 14.125-17.86 14.265-7.8.152-10.312-4.6-19.244-4.6-8.928 0-11.718 4.46-19.11 4.752-7.682.299-13.508-7.642-18.42-14.68-10.03-14.402-17.672-40.706-7.408-58.443 5.119-8.819 14.235-14.39 24.144-14.541 7.548-.124 14.652 5.038 19.259 5.038 4.61 0 13.241-6.242 22.334-5.326 3.79.171 14.472 1.527 21.341 11.507-.566.357-12.75 7.397-12.616 22.077.152 17.552 15.488 23.394 15.668 23.464" fill="#E2D7F4"/><circle fill="#8C43FF" opacity=".451" cx="24" cy="273" r="24"/><circle fill="#8C43FF" opacity=".494" cx="98.5" cy="146.5" r="15.5"/><g opacity=".7" stroke="#8C43FF" stroke-linecap="round" stroke-width="12"><path d="M373.192 40.897L324.65 16.164M336.164 53.192L360.897 4.65"/></g><g opacity=".7" stroke="#8C43FF" stroke-linecap="round" stroke-width="12"><path d="M1320.872 562.397l11.174 41.702M1347.366 577.605l-41.702 11.174"/></g><path d="M251.5 517c8.56 0 15.5-6.94 15.5-15.5 0-8.56-6.94-15.5-15.5-15.5-8.56 0-15.5 6.94-15.5 15.5 0 8.56 6.94 15.5 15.5 15.5z" fill="#8C43FF" opacity=".212"/><circle fill="#8C43FF" opacity=".15" cx="1056" cy="98" r="26"/><circle fill="#8C43FF" opacity=".304" cx="1159.5" cy="205.5" r="15.5"/><circle fill="#8C43FF" opacity=".158" cx="1418.468" cy="411" r="24"/><g opacity=".7" stroke="#8C43FF" stroke-linecap="round" stroke-width="12"><path d="M1336.336 172.504l40.693-34.145M1339.295 134.336l34.146 40.693"/></g></g><path d="M858 375c-6.075 0-11 4.925-11 11v34.283l-16.68 9.856a1 1 0 000 1.722l16.68 9.856V476c0 6.075 4.925 11 11 11h290c6.075 0 11-4.925 11-11v-90c0-6.075-4.925-11-11-11H858z" stroke="#8C43FF" stroke-width="8" fill="#8C43FF"/><g transform="matrix(1 0 0 -1 876 457)" fill="#FFF"><rect opacity=".7" transform="matrix(1 0 0 -1 0 12)" width="148" height="12" rx="6"/><rect opacity=".7" transform="matrix(1 0 0 -1 0 12)" x="158" width="82" height="12" rx="6"/><rect transform="matrix(1 0 0 -1 0 92)" y="40" width="70" height="12" rx="6"/><rect opacity=".7" transform="matrix(1 0 0 -1 0 92)" x="80" y="40" width="120" height="12" rx="6"/><rect opacity=".7" transform="matrix(1 0 0 -1 0 92)" x="210" y="40" width="50" height="12" rx="6"/></g><path d="M350 224c6.075 0 11 4.925 11 11v34.283l16.68 9.856a1 1 0 010 1.722L361 290.717V325c0 6.075-4.925 11-11 11H230c-6.075 0-11-4.925-11-11v-90c0-6.075 4.925-11 11-11h120z" stroke="#8C43FF" stroke-width="8" fill="#8C43FF"/><path d="M267.813 272.75c.885 0 1.638.31 2.257.93.62.62.93 1.372.93 2.257v31.875c0 .886-.31 1.639-.93 2.258-.62.62-1.372.93-2.257.93h-10.625c-.886 0-1.639-.31-2.258-.93a3.074 3.074 0 01-.93-2.257v-31.875c0-.886.31-1.639.93-2.258.62-.62 1.372-.93 2.257-.93h10.625zm-5.313 32.938c.885 0 1.638-.31 2.258-.93.62-.62.93-1.373.93-2.258s-.31-1.638-.93-2.258a3.074 3.074 0 00-2.258-.93c-.885 0-1.638.31-2.258.93-.62.62-.93 1.373-.93 2.258s.31 1.638.93 2.258c.62.62 1.373.93 2.258.93zm42.5-51.93c0 1.594-.266 3.187-.797 4.781-.354.885-.974 2.125-1.86 3.719-.973 1.86-1.549 3.232-1.726 4.117h13.414c2.214 0 4.095.775 5.645 2.324 1.55 1.55 2.324 3.343 2.324 5.38 0 1.239-.243 2.434-.73 3.585-.487 1.151-1.085 2.125-1.793 2.922h-.133c.708 1.682.974 3.497.797 5.445-.177 1.948-.842 3.675-1.993 5.18.532 1.682.576 3.453.133 5.312-.442 1.86-1.195 3.41-2.258 4.649.532 2.302.222 4.294-.93 5.976-1.15 1.683-3.275 2.79-6.374 3.32-1.86.355-4.737.532-8.633.532h-.398c-2.834 0-5.756-.487-8.766-1.46-1.771-.532-4.184-1.484-7.238-2.856-3.055-1.373-5.335-2.059-6.84-2.059-.443 0-.82-.155-1.13-.465a1.537 1.537 0 01-.464-1.129V274.61c0-.442.177-.796.531-1.062 1.771-1.86 3.94-4.649 6.508-8.367 2.125-3.1 3.896-5.313 5.313-6.64.885-.886 1.593-2.082 2.125-3.587.354-.885.752-2.302 1.195-4.25v-.133c.531-2.036 1.018-3.586 1.46-4.648.886-1.948 1.904-2.922 3.056-2.922 2.39 0 4.382.576 5.976 1.727 2.39 1.77 3.586 4.78 3.586 9.03z" fill="#FFF"/><g><path d="M430 637c6.075 0 11 4.925 11 11v34.283l16.68 9.856a1 1 0 010 1.722L441 703.717V738c0 6.075-4.925 11-11 11H310c-6.075 0-11-4.925-11-11v-90c0-6.075 4.925-11 11-11h120z" fill="#8C43FF" stroke="#8C43FF" stroke-width="8"/><path d="M370.922 658c6.29 0 12.11 1.572 17.46 4.717 5.352 3.145 9.6 7.393 12.744 12.744 3.145 5.35 4.718 11.171 4.718 17.46 0 6.29-1.573 12.11-4.718 17.462-3.144 5.35-7.392 9.599-12.743 12.743-5.351 3.145-11.171 4.718-17.461 4.718-6.29 0-12.11-1.573-17.461-4.718-5.351-3.144-9.599-7.392-12.744-12.743-3.145-5.351-4.717-11.171-4.717-17.461 0-6.29 1.572-12.11 4.717-17.461 3.145-5.351 7.393-9.599 12.744-12.744 5.35-3.145 11.171-4.717 17.46-4.717zm24.502 16.898a35.265 35.265 0 00-6.478-6.478l-8.871 9.012a18.604 18.604 0 016.336 6.337l9.013-8.871zm-24.502 31.542c3.755 0 6.947-1.314 9.575-3.943 2.629-2.628 3.943-5.82 3.943-9.575 0-3.755-1.314-6.947-3.943-9.575-2.628-2.629-5.82-3.943-9.575-3.943-3.755 0-6.947 1.314-9.575 3.943-2.629 2.628-3.943 5.82-3.943 9.575 0 3.755 1.314 6.947 3.943 9.575 2.628 2.629 5.82 3.943 9.575 3.943zm-18.024-38.02a35.265 35.265 0 00-6.478 6.478l9.012 8.871a18.604 18.604 0 016.337-6.337l-8.871-9.012zm-6.478 42.526a35.265 35.265 0 006.478 6.478l8.871-9.013a18.604 18.604 0 01-6.337-6.336l-9.012 8.871zm42.526 6.478a35.265 35.265 0 006.478-6.478l-9.013-8.871a18.604 18.604 0 01-6.336 6.336l8.871 9.013z" fill="#FFF"/></g><g><path d="M1064 737c-6.075 0-11 4.925-11 11v34.283l-16.68 9.856a1 1 0 000 1.722l16.68 9.856V838c0 6.075 4.925 11 11 11h120c6.075 0 11-4.925 11-11v-90c0-6.075-4.925-11-11-11h-120z" stroke="#8C43FF" stroke-width="8" fill="#8C43FF"/><path d="M1154.844 793.422c0 5.66-1.415 10.896-4.245 15.71-2.83 4.815-6.652 8.638-11.466 11.467-4.815 2.83-10.052 4.245-15.711 4.245-5.66 0-10.896-1.415-15.711-4.245-4.815-2.83-8.637-6.652-11.467-11.466-2.83-4.815-4.244-10.052-4.244-15.711 0-5.66 1.415-10.896 4.244-15.711 2.83-4.815 6.652-8.637 11.467-11.467s10.052-4.244 15.71-4.244c5.66 0 10.897 1.415 15.712 4.244 4.814 2.83 8.637 6.652 11.466 11.467 2.83 4.815 4.245 10.052 4.245 15.71zm-30.535-21.033c-3.379 0-6.293.718-8.743 2.154-2.28 1.267-4.307 3.252-6.081 5.955-.254.338-.338.697-.254 1.077.085.38.296.697.634.95l4.434 3.295c.254.253.592.359 1.014.317.422-.043.76-.233 1.014-.57 1.351-1.605 2.407-2.704 3.167-3.295 1.183-.844 2.534-1.267 4.055-1.267a7.14 7.14 0 013.99 1.204c1.225.802 1.838 1.795 1.838 2.977 0 .93-.38 1.732-1.14 2.408-.507.422-1.479 1.055-2.915 1.9l-.253.127c-2.112 1.182-3.59 2.238-4.435 3.167-1.52 1.605-2.28 3.506-2.28 5.702v.507c0 .422.148.781.443 1.077.296.295.655.443 1.077.443h7.096c.422 0 .78-.148 1.076-.443.296-.296.444-.655.444-1.077v-.127c0-.676.338-1.267 1.014-1.774.422-.338 1.224-.844 2.407-1.52 2.196-1.352 3.759-2.534 4.688-3.548 1.605-1.774 2.407-4.012 2.407-6.715 0-2.365-.718-4.54-2.154-6.525-1.436-1.985-3.294-3.548-5.575-4.688-2.28-1.14-4.603-1.71-6.968-1.71zm-.887 31.422c-1.605 0-2.978.57-4.118 1.71-1.14 1.141-1.71 2.514-1.71 4.119 0 1.604.57 2.977 1.71 4.117 1.14 1.14 2.513 1.71 4.118 1.71 1.605 0 2.977-.57 4.118-1.71 1.14-1.14 1.71-2.513 1.71-4.117 0-1.605-.57-2.978-1.71-4.118-1.14-1.14-2.513-1.71-4.118-1.71z" fill="#FFF"/></g></g></svg>