<svg width="52" height="48" viewBox="0 0 52 48" xmlns="http://www.w3.org/2000/svg"><title>Shape</title><path d="M44.764 32.959a7.233 7.233 0 01-6.357-3.783l-3.867-7.107-3.25 6.03c-1.626 3.205-6.188 3.625-7.84.433l-3.408-6.581-5.138 9.537-6.16.04 7.366-14.004c1.56-2.969 5.767-3.022 7.42-.105l3.67 6.515 3.565-6.502c1.599-2.916 5.794-2.93 7.393-.013l4.994 9.037c.904 1.643 3.382.999 3.382-.867l.013-12.02c0-4.466-3.63-8.104-8.088-8.104H13.567c-4.457 0-8.088 3.638-8.088 8.105v20.834c0 4.466 3.631 8.105 8.088 8.105h33.4V48h-33.4C6.082 48 0 41.905 0 34.404V13.596C0 6.082 6.07 0 13.567 0h24.866C45.931 0 52 6.082 52 13.596v12.112c0 4.006-3.238 7.251-7.236 7.251z" fill="#FFF" fill-rule="nonzero"/></svg>